HIERARCHY
ROOT Hips
{
  OFFSET 196.326 95.9168 97.7182
  CHANNELS 6 Xposition Yposition Zposition Zrotation Xrotation Yrotation
  JOINT LeftUpLeg
  {
    OFFSET 8.64259 1.95398 -2.38835
    CHANNELS 3 Zrotation Xrotation Yrotation
    JOINT LeftLeg
    {
      OFFSET 43.7702 0 0
      CHANNELS 3 Zrotation Xrotation Yrotation
      JOINT LeftFoot
      {
        OFFSET 40.6238 0 0
        CHANNELS 3 Zrotation Xrotation Yrotation
        JOINT LeftToeBase
        {
          OFFSET 12.7242 0 0
          CHANNELS 3 Zrotation Xrotation Yrotation
          End Site
          {
            OFFSET 0 0 0
          }
        }
      }
    }
  }
  JOINT RightUpLeg
  {
    OFFSET -8.2249 1.95398 -2.59336
    CHANNELS 3 Zrotation Xrotation Yrotation
    JOINT RightLeg
    {
      OFFSET 43.5653 0 0
      CHANNELS 3 Zrotation Xrotation Yrotation
      JOINT RightFoot
      {
        OFFSET 40.6238 0 0
        CHANNELS 3 Zrotation Xrotation Yrotation
        JOINT RightToeBase
        {
          OFFSET 12.7242 0 0
          CHANNELS 3 Zrotation Xrotation Yrotation
          End Site
          {
            OFFSET 0 0 0
          }
        }
      }
    }
  }
  JOINT Spine
  {
    OFFSET 0.165834 0.87714 6.61349
    CHANNELS 3 Zrotation Xrotation Yrotation
    JOINT Spine1
    {
      OFFSET 7.38963 1.71661e-005 0
      CHANNELS 3 Zrotation Xrotation Yrotation
      JOINT Spine2
      {
        OFFSET 11.9445 1.14441e-005 0
        CHANNELS 3 Zrotation Xrotation Yrotation
        JOINT Spine3
        {
          OFFSET 14.7254 4.19617e-005 0
          CHANNELS 3 Zrotation Xrotation Yrotation
          JOINT Spine4
          {
            OFFSET 10.9679 0 0
            CHANNELS 3 Zrotation Xrotation Yrotation
            JOINT RightShoulder
            {
              OFFSET 2.46616 -1.6653 3.69651
              CHANNELS 3 Zrotation Xrotation Yrotation
              JOINT RightArm
              {
                OFFSET 13.0012 0 0
                CHANNELS 3 Zrotation Xrotation Yrotation
                JOINT RightForeArm
                {
                  OFFSET 28.7848 1.52588e-005 0
                  CHANNELS 3 Zrotation Xrotation Yrotation
                  JOINT RightHand
                  {
                    OFFSET 26.5688 1.52588e-005 0
                    CHANNELS 3 Zrotation Xrotation Yrotation
                    End Site
                    {
                      OFFSET 0 0 0
                    }
                  }
                }
              }
            }
            JOINT LeftShoulder
            {
              OFFSET 2.38034 -1.29275 -3.75231
              CHANNELS 3 Zrotation Xrotation Yrotation
              JOINT LeftArm
              {
                OFFSET 16.3182 6.10351e-005 0
                CHANNELS 3 Zrotation Xrotation Yrotation
                JOINT LeftForeArm
                {
                  OFFSET 27.0901 0 0
                  CHANNELS 3 Zrotation Xrotation Yrotation
                  JOINT LeftHand
                  {
                    OFFSET 24.5451 1.52588e-005 0
                    CHANNELS 3 Zrotation Xrotation Yrotation
                    End Site
                    {
                      OFFSET 0 0 0
                    }
                  }
                }
              }
            }
            JOINT Neck
            {
              OFFSET 5.0226 -0.0266342 0
              CHANNELS 3 Zrotation Xrotation Yrotation
              JOINT Head
              {
                OFFSET 6.69363 2.86102e-005 0
                CHANNELS 3 Zrotation Xrotation Yrotation
                End Site
                {
                  OFFSET 0 0 0
                }
              }
            }
          }
        }
      }
    }
  }
}
MOTION
Frames:	10
Frame Time:	0.0416667
-53.1288 97.1241 44.4599 -51.525 -85.3743 -50.3967 -171.481 6.81295 91.8818 -6.46216 8.3932 -1.00478 59.2378 4.48517 13.8547 32.7866 5.35512 -33.0781 178.26 6.58795 90.3129 -9.04292 9.98123 -0.113612 62.9579 -1.87392 -1.00832 29.43 -1.10156 19.64 0.0361941 6.65248 -90.0757 13.5573 0.0350926 -0.15639 1.88635 0.0281702 -0.157783 -20.6487 0.0804637 -0.13988 -0.636106 0.0804714 -0.139887 80.3347 -50.4385 -115.226 26.4975 -10.6968 4.88921 -4.6824 -14.3768 -37.0342 -8.4857 -0.703782 3.88934 -104.058 -42.6606 54.8651 -29.4626 9.84658 4.7228 2.86512 9.41339 -28.7692 10.5686 0.804004 3.50515 11.3159 2.84053 0.846705 -8.36297 2.54013 2.20251 
-53.1172 97.0896 44.4636 -50.3201 -85.4283 -49.2106 -171.239 7.34754 92.0152 -7.16684 8.38697 -1.33091 58.7253 4.55592 14.6355 38.0583 8.36597 -38.236 178.26 6.7467 90.3025 -9.30956 10.2771 -0.129036 63.7596 -1.9701 -1.05922 27.8706 -1.53764 20.4939 0.0337323 6.65166 -90.0784 13.5711 0.0289068 -0.160817 1.90014 0.0217989 -0.161939 -20.635 0.0758985 -0.13988 -0.622321 0.0758946 -0.139887 80.4205 -50.3665 -115.126 26.4502 -10.7166 4.75189 -3.88498 -14.6079 -36.3751 -8.85381 -0.711095 3.64118 -104.032 -42.6721 54.912 -29.4822 9.89553 4.56043 2.9594 9.74742 -28.6882 10.1299 0.815703 3.8882 12.3423 3.20998 0.853811 -8.79848 2.87775 2.25914 
-53.1316 97.0965 44.4639 -50.5834 -85.5907 -49.4921 -171.306 7.10935 91.9825 -6.92 8.59818 -1.26231 58.5614 4.56982 14.7754 37.6528 8.16039 -37.8815 178.297 6.59723 90.3324 -9.2661 10.6611 -0.201031 64.5584 -2.15278 -1.15968 26.0245 -2.08878 21.6195 0.0089036 6.65794 -90.0702 13.558 -0.0163211 -0.138436 1.88699 -0.0223952 -0.137593 -20.6481 0.0260379 -0.137074 -0.635459 0.0260377 -0.137077 80.2142 -50.3525 -115.437 26.3856 -10.7693 4.88383 -3.6986 -14.2941 -36.5363 -8.74652 -0.680444 3.29474 -103.902 -42.684 55.114 -29.5303 9.92015 4.60124 2.94258 9.71788 -28.7753 10.7248 0.877411 4.04628 12.2384 3.25982 0.731786 -8.78481 2.9557 2.38128 
-53.123 97.0777 44.5039 -50.1672 -85.5438 -49.0136 -171.267 7.2912 92.0487 -7.18152 8.49675 -1.28024 58.6329 4.56705 14.8213 38.1266 8.39906 -38.4885 178.249 6.67214 90.3287 -9.37148 10.2198 -0.101783 63.2875 -1.86136 -0.997085 28.9838 -1.24333 19.9879 0.0116112 6.65805 -90.0759 13.5581 -0.0137676 -0.150276 1.88719 -0.020368 -0.149534 -20.6479 0.0320303 -0.14747 -0.635261 0.0320335 -0.147467 80.3301 -50.3968 -115.248 26.1654 -10.91 4.62465 -3.73852 -14.1762 -36.5052 -8.69213 -0.679246 3.32722 -103.844 -42.7228 55.2217 -29.4081 9.96056 4.48801 2.86078 9.57413 -28.7766 10.8524 0.885652 4.03614 12.4061 3.25846 0.643396 -8.92669 2.96767 2.56708 
-53.1153 97.0898 44.5554 -49.7188 -85.5656 -48.5451 -171.286 7.32281 92.043 -7.28039 8.66688 -1.26716 58.7526 4.60229 14.8184 37.2836 7.95163 -38.006 178.235 6.57845 90.3352 -9.27745 10.215 -0.0755592 62.9652 -1.81612 -0.973415 29.4883 -1.08511 19.5963 0.00237033 6.65288 -90.084 13.5569 -0.0360099 -0.163667 1.88594 -0.0431731 -0.161928 -20.6491 0.014841 -0.166918 -0.63649 0.0148467 -0.166924 80.2828 -50.3624 -115.332 26.0796 -10.6985 4.51112 -4.06305 -14.725 -36.1987 -8.43347 -0.712613 4.08309 -103.83 -42.7836 55.2712 -29.3397 9.94504 4.4414 2.84197 9.47543 -28.7787 10.5336 0.85461 3.9718 12.5987 3.33411 0.743442 -9.20288 3.00908 2.53297 
-53.1536 97.1124 44.5493 -50.2017 -85.6124 -49.0954 -171.336 6.89452 91.9686 -6.66183 8.21665 -1.17103 59.0244 4.87119 14.1606 36.0626 7.29388 -36.9118 178.188 6.89885 90.277 -9.93703 10.4916 -0.0535339 62.6812 -1.60137 -0.840808 30.2605 -0.914198 19.8256 0.000824002 6.65179 -90.0807 13.5499 -0.0375103 -0.163373 1.87897 -0.0443847 -0.162061 -20.6561 0.0114385 -0.161121 -0.643449 0.0114432 -0.161125 80.3172 -50.1709 -115.356 26.3148 -10.6495 4.65654 -4.15462 -14.6309 -36.4697 -8.35708 -0.702356 3.9984 -103.874 -42.8313 55.2281 -29.3524 9.86831 4.46585 2.81397 9.26956 -28.8016 10.6282 0.825736 3.65857 12.473 3.38103 0.683334 -9.03099 3.07235 2.66811 
-53.1857 97.16 44.5798 -49.2826 -85.6793 -48.2443 -171.403 6.76065 91.9106 -6.29231 8.50225 -1.1459 58.2538 4.48041 14.5057 37.9745 8.35105 -37.5763 178.239 7.0981 90.2539 -10.304 10.6124 -0.142677 62.4298 -1.44194 -0.740936 30.5669 -0.835181 19.7183 0.00334505 6.65242 -90.0804 13.545 -0.0323486 -0.15677 1.87405 -0.0392384 -0.155164 -20.661 0.0163718 -0.159588 -0.648382 0.0163674 -0.159596 80.4025 -50.1 -115.257 26.4644 -10.5181 4.72278 -4.18677 -15.2341 -36.4855 -8.91213 -0.777885 4.57317 -104 -42.8865 55.0632 -29.271 9.91025 4.49176 2.85715 9.46253 -28.7771 10.6577 0.829786 3.67554 12.9613 4.23553 0.626299 -9.52605 3.90749 2.42787 
-53.1864 97.1172 44.5882 -51.8537 -85.5247 -50.7471 -171.283 6.89914 92.0322 -6.71637 8.47411 -1.23987 58.3994 4.47318 14.7402 37.9847 8.34485 -37.8803 178.233 6.80212 90.3252 -9.86856 10.4259 -0.0965084 62.6298 -1.60743 -0.84429 30.1452 -0.943805 19.8689 0.0270341 6.65316 -90.0978 13.5479 0.0061797 -0.197063 1.8769 -0.00250206 -0.197142 -20.6582 0.0651165 -0.186091 -0.645494 0.0651171 -0.186094 80.382 -50.2013 -115.248 26.2454 -10.7345 4.69544 -3.83079 -15.0691 -36.3872 -9.20973 -0.786252 4.40101 -103.992 -42.9071 55.0845 -29.3673 10.0102 4.63126 2.83348 9.51536 -28.8173 10.5662 0.835073 3.77924 12.4591 7.21337 -0.50476 -8.30494 7.11141 3.26627 
-53.185 97.07 44.6534 -51.7944 -85.3854 -50.6675 -171.406 7.10442 91.9608 -7.185 7.93136 -1.06366 59.1935 4.89871 14.3393 36.6076 7.59185 -37.3828 178.224 6.64696 90.3267 -9.49947 10.1008 -0.0759729 63.1203 -1.82173 -0.976789 29.5827 -1.07365 19.7833 0.0439127 6.65315 -90.0949 13.5676 0.0411226 -0.195345 1.89661 0.0324871 -0.196968 -20.6385 0.0979263 -0.173957 -0.625808 0.0979276 -0.173959 80.4407 -50.3545 -115.102 26.2656 -10.7126 4.62933 -4.07229 -15.3297 -36.4444 -8.86406 -0.742054 4.07027 -103.734 -42.685 55.3698 -29.5449 9.98953 4.53221 3.01756 9.85175 -28.929 10.5717 0.877882 4.1511 12.1468 11.2424 -2.67143 -8.02747 11.5554 4.98027 
-53.1862 97.0915 44.6903 -50.0961 -85.4871 -49.0386 -171.435 7.08929 91.9209 -6.9896 8.14448 -1.09596 58.6197 4.53199 14.6177 38.2579 8.47146 -38.4612 178.17 6.70877 90.2596 -9.6415 10.244 -0.0515181 63.1317 -1.79237 -0.957718 29.6818 -1.04067 19.6259 0.0500512 6.64868 -90.1012 13.5765 0.0502524 -0.20916 1.90554 0.0409925 -0.211187 -20.6295 0.110788 -0.184392 -0.616866 0.110783 -0.184404 80.5459 -50.133 -115.033 26.4219 -10.7855 4.66577 -3.86433 -15.3087 -36.3333 -9.29774 -0.753253 3.81255 -103.742 -42.6986 55.3636 -29.3793 9.98792 4.4359 3.11547 9.93893 -29.0596 10.1696 0.852571 4.19646 11.973 15.4751 -4.20901 -8.27709 16.0188 6.19157 
